#!OML:ASF F:\VICON\USERDATA\INSTALL\rory3\rory3.ASF
:FULLY-SPECIFIED
:DEGREES
742
root 0.180178 17.9795 -1.11085 2.60843 -8.71979 2.95425
lowerback 0.718959 -1.31029 -5.15303
upperback 1.78543 -1.76025 1.71701
thorax 1.64837 -0.972254 4.65035
lowerneck -15.1093 0.149308 -11.0623
upperneck 15.7066 1.62446 6.1033
head 7.15804 0.681222 3.99008
rclavicle 1.0635e-014 1.27222e-014
rhumerus -33.4444 -5.8523 -78.1327
rradius 35.8817
rwrist 18.2774
rhand -22.5151 6.90489
rfingers 7.12502
rthumb 3.91136 -23.039
lclavicle 1.0635e-014 1.27222e-014
lhumerus 9.16551 -26.2713 75.9836
lradius 114.266
lwrist 0.768153
lhand -26.3342 35.4523
lfingers 7.12502
lthumb 0.222927 65.4319
rfemur -10.3712 6.97041 12.1965
rtibia 26.7598
rfoot -16.1542 -2.92805
rtoes 3.63585
lfemur -2.07063 -1.69666 -23.9801
ltibia 13.4368
lfoot -9.82096 3.72726
ltoes -11.6742
743
root 0.180657 17.9798 -1.11783 2.585 -8.71799 2.92225
lowerback 0.852483 -1.2874 -5.1232
upperback 1.80411 -1.73609 1.71374
thorax 1.58863 -0.958447 4.63344
lowerneck -14.8935 0.144854 -11.1153
upperneck 15.8414 1.59964 6.12304
head 7.16606 0.662181 4.0031
rclavicle -2.49475e-014 3.18055e-015
rhumerus -33.4386 -5.88047 -78.1476
rradius 35.8393
rwrist 18.2677
rhand -22.5838 7.13091
rfingers 7.12502
rthumb 3.845 -22.8142
lclavicle -2.49475e-014 3.18055e-015
lhumerus 8.65295 -26.3656 76.3601
lradius 114.179
lwrist 1.11432
lhand -27.0539 35.1127
lfingers 7.12502
lthumb -0.472172 65.092
rfemur -10.339 7.03855 12.2444
rtibia 26.7012
rfoot -16.0954 -3.05767
rtoes 3.41344
lfemur -2.12339 -1.73721 -23.9434
ltibia 13.5512
lfoot -9.8357 3.76812
ltoes -11.4724
744
root 0.180781 17.9829 -1.12355 2.68833 -8.63656 2.72745
lowerback 0.722783 -1.35898 -5.03812
upperback 1.9342 -1.82584 1.84719
thorax 1.80845 -1.01284 4.71791
lowerneck -14.8726 0.187711 -11.2457
upperneck 15.8625 1.68244 6.13754
head 7.1606 0.69457 4.03743
rclavicle -4.96962e-016 3.97569e-015
rhumerus -33.1746 -5.72903 -78.1419
rradius 35.8412
rwrist 18.3165
rhand -22.5467 7.31061
rfingers 7.12502
rthumb 3.88086 -22.6338
lclavicle -4.96962e-016 3.97569e-015
lhumerus 8.38487 -26.2241 76.6542
lradius 114.119
lwrist 1.2928
lhand -27.36 34.469
lfingers 7.12502
lthumb -0.767794 64.4473
rfemur -10.3746 7.00079 12.4578
rtibia 26.5882
rfoot -16.0226 -3.12938
rtoes 3.558
lfemur -2.34393 -1.68264 -23.7112
ltibia 13.7556
lfoot -9.90476 3.63543
ltoes -11.444
745
root 0.180534 17.986 -1.12777 2.91992 -8.49684 2.46736
lowerback 0.302951 -1.46469 -4.94787
upperback 2.17935 -1.94872 2.02475
thorax 2.31661 -1.09505 4.83499
lowerneck -15.1 0.176797 -11.3743
upperneck 15.9013 1.72943 6.10697
head 7.20836 0.707765 4.05721
rclavicle -3.05134e-014 2.06736e-014
rhumerus -32.6687 -5.59625 -78.1444
rradius 35.8455
rwrist 18.3686
rhand -22.5299 7.45701
rfingers 7.12502
rthumb 3.8971 -22.4871
lclavicle -3.05134e-014 2.06736e-014
lhumerus 8.30887 -26.384 76.7867
lradius 114.255
lwrist 0.485043
lhand -27.468 36.0041
lfingers 7.12502
lthumb -0.872117 65.982
rfemur -10.505 6.9064 12.7256
rtibia 26.4587
rfoot -15.9622 -3.17512
rtoes 3.60271
lfemur -2.69392 -1.61159 -23.399
ltibia 13.9573
lfoot -9.96317 3.44409
ltoes -11.6206
746
root 0.180443 17.9889 -1.1328 3.05149 -8.42394 2.31229
lowerback 0.264414 -1.48101 -4.88464
upperback 2.16918 -1.97171 2.13633
thorax 2.33247 -1.10696 4.91419
lowerneck -14.8677 0.132704 -11.4931
upperneck 16.0131 1.68129 6.02767
head 7.20974 0.664493 4.04475
rclavicle -3.66758e-014 1.82882e-014
rhumerus -32.689 -5.54776 -78.0475
rradius 35.8667
rwrist 18.4379
rhand -22.5932 7.61127
rfingers 7.12502
rthumb 3.83596 -22.334
lclavicle -3.66758e-014 1.82882e-014
lhumerus 7.76859 -26.4118 77.2385
lradius 114.231
lwrist 0.844175
lhand -27.3681 36.0098
lfingers 7.12502
lthumb -0.775646 65.9881
rfemur -10.5602 6.87482 12.8857
rtibia 26.324
rfoot -15.9261 -3.21205
rtoes 3.60006
lfemur -2.94805 -1.66845 -23.2159
ltibia 14.1815
lfoot -10.0853 3.42367
ltoes -11.7228
747
root 0.181123 17.9909 -1.13904 3.06872 -8.40601 2.29228
lowerback 0.59206 -1.43498 -4.88387
upperback 1.88024 -1.92763 2.18848
thorax 1.84544 -1.06482 4.98209
lowerneck -14.0884 0.153766 -11.4626
upperneck 16.1581 1.64559 5.80959
head 7.12817 0.617021 3.95564
rclavicle 3.21037e-014 -1.74931e-014
rhumerus -33.2839 -5.47686 -77.8604
rradius 35.954
rwrist 18.3837
rhand -22.6158 7.72368
rfingers 7.12502
rthumb 3.81412 -22.2219
lclavicle 3.21037e-014 -1.74931e-014
lhumerus 6.61971 -27.0944 77.8688
lradius 114.206
lwrist -0.601036
lhand -29.0255 38.3756
lfingers 7.12502
lthumb -2.37632 68.3421
rfemur -10.5493 6.87623 12.9082
rtibia 26.2185
rfoot -15.8904 -3.29754
rtoes 3.19275
lfemur -3.07526 -1.70583 -23.1916
ltibia 14.3696
lfoot -10.1676 3.45155
ltoes -11.8147
748
root 0.181599 17.9923 -1.149 3.12617 -8.39754 2.18985
lowerback 0.943519 -1.41327 -4.83479
upperback 1.59996 -1.91685 2.26067
thorax 1.35771 -1.03883 5.04342
lowerneck -13.4394 0.200628 -11.3119
upperneck 16.3047 1.6467 5.53121
head 7.06769 0.590862 3.83272
rclavicle 3.48867e-014 -8.74653e-015
rhumerus -33.8065 -5.39751 -77.7194
rradius 36.0382
rwrist 18.3894
rhand -22.6192 7.91841
rfingers 7.12502
rthumb 3.81085 -22.0273
lclavicle 3.48867e-014 -8.74653e-015
lhumerus 5.68241 -27.1246 78.4901
lradius 114.602
lwrist 0.664322
lhand -28.9667 36.7056
lfingers 7.12502
lthumb -2.31957 66.6727
rfemur -10.6179 6.91118 13.022
rtibia 26.1678
rfoot -15.8462 -3.42705
rtoes 3.05543
lfemur -3.19756 -1.71308 -23.0686
ltibia 14.4393
lfoot -10.1533 3.44965
ltoes -11.9487
749
root 0.181063 17.9939 -1.15765 3.19458 -8.39214 2.15023
lowerback 1.05609 -1.38237 -4.72999
upperback 1.51735 -1.88003 2.20843
thorax 1.19893 -1.01213 4.93403
lowerneck -13.1474 0.207795 -11.2368
upperneck 16.4959 1.60924 5.4987
head 7.08283 0.566446 3.80666
rclavicle -2.98177e-015 -2.06736e-014
rhumerus -34.0333 -5.57938 -77.7256
rradius 36.0589
rwrist 18.5617
rhand -22.783 8.12936
rfingers 7.12502
rthumb 3.65266 -21.8191
lclavicle -2.98177e-015 -2.06736e-014
lhumerus 5.1482 -27.4391 78.7274
lradius 114.731
lwrist 0.589812
lhand -28.1191 36.8943
lfingers 7.12502
lthumb -1.50094 66.8688
rfemur -10.7072 6.91322 13.062
rtibia 26.162
rfoot -15.8204 -3.4238
rtoes 3.33548
lfemur -3.29833 -1.63751 -23.0135
ltibia 14.4327
lfoot -10.1123 3.35599
ltoes -12.0609
750
root 0.181138 17.9946 -1.16364 3.22284 -8.36461 2.24873
lowerback 0.955271 -1.30187 -4.60949
upperback 1.63764 -1.76509 2.02036
thorax 1.35525 -0.95838 4.66626
lowerneck -13.1731 0.133577 -11.2787
upperneck 16.6739 1.47887 5.71136
head 7.15315 0.516049 3.87697
rclavicle -1.38155e-014 -1.74931e-014
rhumerus -34.0234 -5.98727 -77.8248
rradius 36.1417
rwrist 18.6045
rhand -22.8665 8.11201
rfingers 7.12502
rthumb 3.572 -21.8378
lclavicle -1.38155e-014 -1.74931e-014
lhumerus 5.02323 -27.8452 78.762
lradius 114.799
lwrist 0.566656
lhand -27.0613 37.2352
lfingers 7.12502
lthumb -0.479266 67.2144
rfemur -10.7646 6.87439 12.9433
rtibia 26.1729
rfoot -15.7953 -3.34122
rtoes 3.91311
lfemur -3.38581 -1.63336 -23.112
ltibia 14.4352
lfoot -10.1241 3.31225
ltoes -11.7672
751
root 0.181679 17.9937 -1.17006 3.2249 -8.36192 2.28812
lowerback 0.957294 -1.23707 -4.53063
upperback 1.73721 -1.67662 1.92124
thorax 1.44084 -0.916583 4.51795
lowerneck -13.1749 0.0889214 -11.2748
upperneck 16.8125 1.40108 5.78998
head 7.20444 0.48248 3.89874
rclavicle 2.28602e-014 -5.56597e-015
rhumerus -33.9776 -6.20796 -77.8895
rradius 36.2393
rwrist 18.597
rhand -22.835 7.84549
rfingers 7.12502
rthumb 3.60244 -22.1038
lclavicle 2.28602e-014 -5.56597e-015
lhumerus 4.80013 -28.142 78.8826
lradius 114.821
lwrist 0.47756
lhand -27.3468 36.8391
lfingers 7.12502
lthumb -0.755034 66.8175
rfemur -10.8135 6.88534 12.8953
rtibia 26.2013
rfoot -15.7916 -3.31467
rtoes 4.27287
lfemur -3.42455 -1.67969 -23.1521
ltibia 14.3858
lfoot -10.0992 3.38911
ltoes -11.6292
752
root 0.182434 17.9951 -1.17646 3.23375 -8.38766 2.3002
lowerback 1.05445 -1.20013 -4.56277
upperback 1.7433 -1.63143 1.92788
thorax 1.38872 -0.893235 4.54568
lowerneck -13.0379 0.0712325 -11.2214
upperneck 16.9309 1.37448 5.64611
head 7.22388 0.455289 3.84049
rclavicle 8.05078e-015 1.59028e-014
rhumerus -34.0247 -6.2025 -77.8529
rradius 36.3254
rwrist 18.5401
rhand -22.8627 7.71971
rfingers 7.12502
rthumb 3.57567 -22.23
lclavicle 8.05078e-015 1.59028e-014
lhumerus 4.37924 -28.3169 79.2104
lradius 114.88
lwrist 0.451391
lhand -27.5201 36.8654
lfingers 7.12502
lthumb -0.922445 66.8432
rfemur -10.8817 6.88725 12.8822
rtibia 26.2426
rfoot -15.7656 -3.32926
rtoes 4.0501
lfemur -3.387 -1.69302 -23.1634
ltibia 14.2707
lfoot -10.0251 3.39028
ltoes -11.9234
753
root 0.184662 17.9981 -1.18163 3.33118 -8.43359 2.40174
lowerback 1.0181 -1.16239 -4.66494
upperback 1.72878 -1.57951 1.90097
thorax 1.39059 -0.86807 4.57534
lowerneck -12.9626 0.0489045 -11.2118
upperneck 17.102 1.34146 5.59003
head 7.27039 0.429485 3.8202
rclavicle -1.86858e-014 -3.97569e-015
rhumerus -34.0726 -6.28455 -77.8014
rradius 36.3626
rwrist 18.5404
rhand -22.93 7.74456
rfingers 7.12502
rthumb 3.51068 -22.2063
lclavicle -1.86858e-014 -3.97569e-015
lhumerus 4.02239 -28.4992 79.4996
lradius 114.991
lwrist 0.512731
lhand -27.4403 37.3586
lfingers 7.12502
lthumb -0.845301 67.3367
rfemur -11.0429 6.79617 12.7389
rtibia 26.2459
rfoot -15.6878 -3.27139
rtoes 3.62353
lfemur -3.47007 -1.68468 -23.2855
ltibia 14.2118
lfoot -9.97644 3.37363
ltoes -12.2549
754
root 0.187885 17.9988 -1.18438 3.4311 -8.4741 2.49512
lowerback 0.939231 -1.131 -4.70548
upperback 1.73 -1.53359 1.84781
thorax 1.4305 -0.84621 4.54161
lowerneck -12.8481 0.0119994 -11.2139
upperneck 17.2015 1.27333 5.6061
head 7.2886 0.394326 3.8205
rclavicle -2.5842e-014 -2.38542e-015
rhumerus -34.104 -6.30363 -77.8201
rradius 36.4104
rwrist 18.5055
rhand -22.9678 7.64497
rfingers 7.12502
rthumb 3.47417 -22.3065
lclavicle -2.5842e-014 -2.38542e-015
lhumerus 3.67004 -28.6803 79.7286
lradius 115.093
lwrist 0.577478
lhand -27.5408 37.6368
lfingers 7.12502
lthumb -0.942397 67.6145
rfemur -11.164 6.70176 12.5904
rtibia 26.2235
rfoot -15.6402 -3.13693
rtoes 3.9703
lfemur -3.58589 -1.68889 -23.4076
ltibia 14.2012
lfoot -9.91707 3.42458
ltoes -12.3061
755
root 0.188626 18.001 -1.18836 3.50716 -8.52414 2.41916
lowerback 0.922189 -1.07712 -4.61139
upperback 1.74193 -1.46064 1.8402
thorax 1.4411 -0.808858 4.48056
lowerneck -12.6411 -0.0217542 -11.2256
upperneck 17.2058 1.19531 5.65376
head 7.25974 0.358395 3.82866
rclavicle -5.26779e-015 -5.56597e-015
rhumerus -34.1499 -6.30885 -77.8581
rradius 36.5028
rwrist 18.4628
rhand -23.0179 7.50338
rfingers 7.12502
rthumb 3.42581 -22.4488
lclavicle -5.26779e-015 -5.56597e-015
lhumerus 3.22135 -28.7988 79.9865
lradius 115.073
lwrist 0.618256
lhand -27.5556 37.3197
lfingers 7.12502
lthumb -0.956729 67.2973
rfemur -11.2408 6.76005 12.6524
rtibia 26.1954
rfoot -15.6085 -3.09522
rtoes 4.4059
lfemur -3.65475 -1.77801 -23.3344
ltibia 14.1848
lfoot -9.87149 3.57655
ltoes -12.2672
756
root 0.188364 18.003 -1.1965 3.55839 -8.57001 2.33856
lowerback 0.930286 -1.01972 -4.55061
upperback 1.80808 -1.38384 1.84682
thorax 1.49468 -0.772492 4.45316
lowerneck -12.5564 -0.0351567 -11.237
upperneck 17.2321 1.15899 5.70559
head 7.25579 0.343466 3.84409
rclavicle 1.68967e-015 1.59028e-015
rhumerus -34.0623 -6.35992 -77.8784
rradius 36.5423
rwrist 18.4283
rhand -23.122 7.53382
rfingers 7.12502
rthumb 3.32533 -22.42
lclavicle 1.68967e-015 1.59028e-015
lhumerus 2.65975 -28.8127 80.3041
lradius 115.047
lwrist 0.538505
lhand -27.4879 36.8636
lfingers 7.12502
lthumb -0.891277 66.8415
rfemur -11.3267 6.83593 12.7471
rtibia 26.1644
rfoot -15.5358 -3.22012
rtoes 3.96797
lfemur -3.72842 -1.8078 -23.2385
ltibia 14.1956
lfoot -9.87402 3.66197
ltoes -12.3939
